<svg id="visual" viewBox="0 0 1080 600" width="1080" height="600" xmlns="http://www.w3.org/2000/svg" xmlns:xlink="http://www.w3.org/1999/xlink" version="1.1"><rect x="0" y="0" width="1080" height="600" fill="#002233"></rect><path d="M0 450L36 460C72 470 144 490 216 499.5C288 509 360 508 432 491.7C504 475.3 576 443.7 648 428.2C720 412.7 792 413.3 864 420.7C936 428 1008 442 1044 449L1080 456L1080 601L1044 601C1008 601 936 601 864 601C792 601 720 601 648 601C576 601 504 601 432 601C360 601 288 601 216 601C144 601 72 601 36 601L0 601Z" fill="#144895" stroke-linecap="round" stroke-linejoin="miter"></path></svg>