<svg id="visual" viewBox="0 0 1080 675" width="1080" height="675" xmlns="http://www.w3.org/2000/svg" xmlns:xlink="http://www.w3.org/1999/xlink" version="1.1"><rect x="0" y="0" width="1080" height="675" fill="#002233"></rect><path d="M0 522L30 532.8C60 543.7 120 565.3 180 575C240 584.7 300 582.3 360 567.2C420 552 480 524 540 512.5C600 501 660 506 720 512.5C780 519 840 527 900 534.7C960 542.3 1020 549.7 1050 553.3L1080 557L1080 676L1050 676C1020 676 960 676 900 676C840 676 780 676 720 676C660 676 600 676 540 676C480 676 420 676 360 676C300 676 240 676 180 676C120 676 60 676 30 676L0 676Z" fill="#0066FF" stroke-linecap="round" stroke-linejoin="miter"></path></svg>